<svg viewBox="0 0 1303 575" xmlns="http://www.w3.org/2000/svg" xmlns:xlink="http://www.w3.org/1999/xlink">
  <radialGradient id="a" cx=".5" cy=".78" gradientUnits="objectBoundingBox" r="1">
    <stop offset="0" stop-color="#ff8f00"/>
    <stop offset="1" stop-color="#f02352"/>
  </radialGradient>
  <path d="m359.234 335.486s-129.688 25.986-216.294-41.537c4.594-39.67 24.227-74.787 53.043-99.49-.794-8.287-.937-15.736-.667-24.136 8.549 1.235 17.053 3.698 24.476 7.326 22.62-12.972 48.828-20.391 76.752-20.391 28.085 0 54.429 7.502 77.141 20.611 6.062-3.459 11.978-5.869 18.697-8.243 1.498 7.609 2.223 15.52 2.415 22.89 34.428 28.373 56.387 71.333 56.387 119.38 0 85.35-69.289 154.639-154.639 154.639-85.345 0-154.671-69.315-154.636-154.64 2.963 2.069 97.664 67.14 217.325 23.589zm-140.244 78.447 19.83 32.44c-43.389-13.16-87.057-70.258-90.97-123.996 34.871 22.304 76.445 34.168 115.583 35.265l-31.476 10.087c10.696 6.629 23.124 14.63 34.38 21.323-16.243-.561-32.487-1.111-48.731-1.665l42.112 28.539zm93.857-92.667s15.107-25.406 44.368-17.03c0 0-15.198 23.433-44.368 17.03zm-37.198 0s-15.107-25.406-44.368-17.03c0 0 15.198 23.433 44.368 17.03zm77.67-117.611c5.739 11.972 19.202 17.296 30.25 18.521 4.709-13.633 4.509-28.516 2.952-42.432-13.018 5.596-24.901 14.018-33.202 23.911zm-144.2 17.901c13.831-2.71 24.781-10.781 28.423-21.375-9.149-10.68-21.968-17.751-34.992-20.935.257 14.974 1.966 30.297 6.569 42.31z" fill="url(#a)" fill-rule="evenodd"/>
  <path d="m1060.097 109.813c31.796-7.195 74.655-8.379 95.289 16.918 5.964 7.572 7.758 15.97 2.941 24.704-5.522 9.565-17.812 7.974-16.099-2.61 2.32-8.657 4.85-15.239-2.216-20.945-8.253-6.448-17.906-9.304-27.969-10.793-29.276-4.336-57.204 1.474-84.446 11.842-32.378 11.018-58.927 25.09-89.058 31.839-2.991.671-4.44 1.946-4.943 5.126-11.01 68.311-25.478 144.78-15.305 214.821 5.815 31.623 37.71-9.908 45.554-23.656 9.656-16.884 20.574-38 31.271-57.693 10.045-19.049 19.479-37.062 30.291-47.036 9.276-9.32 20.265-14.462 33.571-13.693 13.088 1.134.32 8.528-5.252 9.238-12.992 1.658-23.007 9.339-29.56 19.853-8.498 13.637-17.221 30.711-24.2 45.367-13.419 28.181-27.154 56.115-47.576 80.006-9.823 10.784-33.482 39.374-50.715 12.024-20.897-35.44-10.958-101.751-10.601-125.781-7.868 11.296-16.005 24.209-23.01 34.402-1.593 2.346-1.785 4.077-.743 6.785 10.302 26.732 13.268 54.002 4.213 81.656-7.295 22.273-20.466 39.713-42.894 48.945-19.414 7.994-39.14 1.792-47.809-15.34-9.913-21.3 3.726-43.255 16.738-56.738 13.007-13.841 25.982-27.714 39.093-41.455 2.311-2.421 2.431-4.295 1.108-7.406-7.138-16.782-17.884-31.187-29.225-45.737-11 20.456-26.685 40.349-40.181 59.208-19.551 27.321-31.791 45.184-62.428 45.244-35.838-1.639-45.807-25.218-50.268-56.93-21.524 42.688-62.283 61.682-96.461 40.494-11.627-7.38-8.832-15.698 1.907-9.773 17.289 9.685 30.22 4.244 39.569-10.825 12.495-21.414 16.168-39.211 16.683-53.042 5.462-38.171-26.015-46.105-48.639-16.751-13.341 19.814-24.644 40.838-32.9 63.347-1.174 3.205-1.889 6.722-2.059 10.135-3.681 51.387-1.821 100.617.513 146.153 0 12.542-19.339 15.143-20.834 1.064-9.634-85.73-4.282-182.021 7.601-258.271 1.123-6.57 5.715-15.297 8.545-17.162 10.033-6.614 16.617-3.055 15.992 5.969-.869 29.604-5.133 59.209-8.662 88.813 9.867-20.328 19.579-42.071 32.355-56.505 16.734-22.553 53.341-29.341 66.461 3.863 10.085 24.314 6.662 47.62-4.95 70.346-5.016 9.817-11.543 18.495-19.846 26.156 29.876-19.026 45.926-54.709 56.355-85.41 8.974-20.435 22.522-37.034 44.1-45.312 32.982-14.131 59.073 20.345 34.678 44.445-11.738 11.533-35.518 21.358-54.279 24.194-4.768.736-6.685 2.469-7.251 7.097-6.373 31.209 8.88 81.951 44.369 61.461 25.887-15.01 49.062-60.501 71.643-91.697 1.927-2.846 1.574-4.748-.466-7.402-9.361-12.182-18.234-24.72-22.613-39.729-10.983-35.615 9.575-71.278 45.151-67.755 8.999.954 16.918 3.441 21.055 12.091 8.745 20.1-4.298 54.041-13.823 73.542-.74 1.458-.866 4.043-.057 5.349 10.896 16.807 20.484 34.455 32.529 50.63 10.104-16.751 20.318-33.435 30.085-50.003 3.623-19.368 8.134-60.535 12.201-90.803-39.191 4.371-62.895-9.701-56.722-34.496 1.392-4.216 4.128-8.158 6.927-11.691 3.893-5.529 20.229-3.436 15.242 5.712-2.519 5.173-4.537 10.523-2.768 16.401 6.428 19.021 21.152 13.173 36.483 11.666 2.824-.264 3.523-1.596 3.967-4.156 3.989-23.045 8.101-46.067 12.258-69.081 2.442-21.525 37.142-26.028 32.67-2.024-5.103 24.704-11.547 48.683-15.54 69.692 42.19-9.97 84.485-30.897 122.96-38.897zm-261.461 281.275c-22.973 23.475-7.183 61.098 20.352 48.961 34.569-16.822 30.483-64.306 23.788-94.314-15.117 15.447-30.006 30.05-44.14 45.353zm-109.386-98.36c16.481-2.292 37.652-11.059 46.817-20.771 18.132-18.171-4.301-34.854-18.738-22.755-13.733 11.078-22.661 29.622-28.079 43.526zm132.456-48.602c9.877-19.747 14.376-37.796 11.719-58.067-.635-9.478-21.027-11.753-25.371 7.906-4.534 19.018 3.652 34.663 13.652 50.161z"/>
</svg>
