<?xml version="1.0" encoding="utf-8"?>
<!DOCTYPE svg PUBLIC "-//W3C//DTD SVG 1.1//EN" "http://www.w3.org/Graphics/SVG/1.1/DTD/svg11.dtd">
<svg version="1.1" id="Layer_1" xmlns="http://www.w3.org/2000/svg" xmlns:xlink="http://www.w3.org/1999/xlink" x="0px" y="0px"
	 width="256px" height="180px" viewBox="0 0 256 180" enable-background="new 0 0 256 180" xml:space="preserve">
<g>
	<path d="M166.882,45.42c5.519-1.676,10.708-3.04,15.746-4.83c7.699-2.736,15.242-5.908,23.306-7.524
		c6.7-1.343,13.398-2.214,20.149-0.458c3.892,1.012,7.53,2.549,10.115,5.831c1.894,2.405,2.464,5.072,0.934,7.846
		c-0.438,0.795-1.34,1.548-2.196,1.855c-1.843,0.66-3.293-0.761-2.917-2.684c0.202-1.033,0.505-2.046,0.692-3.08
		c0.264-1.458-0.196-2.635-1.396-3.572c-2.621-2.048-5.687-2.955-8.883-3.428c-9.298-1.377-18.168,0.468-26.82,3.761
		c-7.54,2.87-15.058,5.797-22.618,8.614c-1.823,0.679-3.761,1.07-5.667,1.498c-0.95,0.213-1.41,0.618-1.57,1.628
		c-1.393,8.824-2.988,17.619-4.232,26.464c-1.572,11.172-1.993,22.425-1.555,33.698c0.105,2.699,0.393,5.42,0.926,8.065
		c0.832,4.128,3.009,4.873,6.252,2.237c3.347-2.72,6.117-6.009,8.216-9.75c3.902-6.953,7.607-14.016,11.379-21.041
		c2.33-4.339,4.648-8.679,8.173-12.221c2.946-2.96,6.436-4.593,10.662-4.349c0.616,0.036,1.208,0.501,1.811,0.767
		c-0.452,0.476-0.833,1.067-1.374,1.397c-0.628,0.383-1.376,0.652-2.105,0.77c-4.212,0.682-7.414,3.026-9.52,6.529
		c-2.757,4.586-5.27,9.344-7.554,14.185c-4.229,8.966-8.624,17.822-15.11,25.41c-1.968,2.303-4.217,4.487-6.7,6.2
		c-3.622,2.5-7.116,1.431-9.407-2.381c-2.199-3.66-2.975-7.757-3.507-11.897c-1.191-9.282-0.461-18.564,0.14-28.051
		c-0.316,0.424-0.548,0.706-0.748,1.009c-2.183,3.308-4.333,6.639-6.56,9.917c-0.506,0.745-0.567,1.295-0.236,2.155
		c3.272,8.49,4.214,17.151,1.338,25.934c-2.317,7.074-6.5,12.613-13.623,15.545c-6.166,2.539-12.431,0.569-15.184-4.872
		c-1.548-3.058-1.398-6.202-0.281-9.355c1.179-3.33,3.205-6.119,5.597-8.665c4.131-4.396,8.252-8.802,12.416-13.166
		c0.734-0.769,0.772-1.364,0.352-2.352c-2.267-5.33-5.68-9.905-9.282-14.526c-1.696,2.762-3.206,5.562-5.036,8.136
		c-4.276,6.013-8.543,12.045-13.123,17.825c-3.603,4.548-8.37,7.267-14.43,7.213c-6.845-0.061-12.354-3.954-14.371-10.498
		c-0.747-2.423-1.061-4.98-1.594-7.583c-0.218,0.357-0.512,0.811-0.778,1.28c-2.976,5.251-6.61,9.885-12.309,12.389
		c-5.949,2.614-11.847,2.163-17.549-0.808c-0.877-0.457-1.63-1.335-2.179-2.186c-0.61-0.946-0.032-1.683,1.1-1.517
		c0.58,0.085,1.17,0.311,1.685,0.599c5.491,3.076,9.598,1.348,12.567-3.438c3.905-6.294,5.629-13.311,5.396-20.689
		c-0.19-6.01-5.197-8.886-10.467-6.02c-1.954,1.062-3.841,2.706-5.078,4.543c-4.237,6.293-7.827,12.97-10.449,20.119
		c-0.373,1.018-0.6,2.135-0.654,3.219c-0.72,14.469-1.007,28.939,0.1,43.405c0.077,1,0.101,2.011,0.063,3.013
		c-0.074,1.98-1.311,3.253-3.159,3.33c-1.909,0.08-3.297-1.008-3.458-2.992c-0.57-7.007-1.315-14.014-1.523-21.034
		c-0.464-15.647,0.484-31.255,2.065-46.82c0.481-4.739,1.166-9.461,1.872-14.173c0.182-1.215,0.676-2.428,1.252-3.523
		c0.451-0.856,1.11-1.78,1.922-2.236c2.504-1.403,4.706-1.094,4.619,2.204c-0.126,4.754-0.523,9.513-1.054,14.242
		c-0.521,4.631-1.354,9.227-2.051,13.839c0.118,0.042,0.236,0.084,0.354,0.126c0.217-0.441,0.436-0.88,0.649-1.323
		c2.781-5.79,5.427-11.664,9.627-16.623c2.487-2.937,5.445-5.316,9.379-5.832c5.636-0.739,9.525,1.745,11.729,7.059
		c3.203,7.722,2.116,15.124-1.572,22.342c-1.593,3.118-3.666,5.874-6.303,8.307c0.417-0.241,0.85-0.458,1.249-0.726
		c4.544-3.052,7.461-7.481,10.373-11.975c2.908-4.486,4.169-9.627,6.276-14.425c2.85-6.49,7.153-11.762,14.006-14.391
		c4.279-1.642,8.391-1.528,11.846,1.974c3.185,3.228,2.766,8.848-0.832,12.142c-4.166,3.814-9.269,5.694-14.596,7.114
		c-0.872,0.232-1.756,0.537-2.643,0.57c-1.531,0.057-2.123,0.784-2.303,2.254c-0.62,5.059-0.593,10.071,1.51,14.8
		c0.731,1.643,1.886,3.244,3.226,4.44c2.65,2.364,5.985,2.323,9.356,0.28c3.865-2.341,6.823-5.669,9.368-9.28
		c4.595-6.521,8.914-13.235,13.386-19.843c0.612-0.904,0.5-1.508-0.148-2.351c-2.973-3.869-5.791-7.851-7.182-12.618
		c-1.447-4.96-1.234-9.857,1.064-14.519c2.393-4.854,7.86-7.575,13.276-7c2.858,0.303,5.373,1.093,6.687,3.84
		c1.312,2.744,1.03,5.685,0.574,8.586c-0.817,5.203-2.585,10.086-4.964,14.771c-0.235,0.463-0.275,1.284-0.018,1.699
		c3.202,5.157,6.475,10.27,9.734,15.39c0.077,0.121,0.215,0.202,0.662,0.608c3.209-5.32,6.388-10.537,9.49-15.799
		c0.382-0.648,0.401-1.533,0.503-2.32c1.13-8.665,2.244-17.333,3.356-26.001c0.018-0.137-0.031-0.282-0.058-0.504
		c-3.884,0.379-7.716,0.294-11.486-0.743c-4.931-1.356-7.885-5.893-6.455-10.227c0.442-1.339,1.311-2.591,2.2-3.713
		c0.945-1.193,3.157-1.275,4.435-0.407c0.902,0.613,0.832,1.346,0.406,2.221c-0.8,1.643-1.441,3.342-0.879,5.209
		c0.931,3.094,3.145,4.61,6.511,4.364c1.699-0.124,3.378-0.5,5.076-0.659c0.897-0.084,1.119-0.507,1.26-1.32
		c1.267-7.319,2.573-14.631,3.893-21.94c0.532-2.948,2.236-4.884,5.174-5.62c3.449-0.864,5.964,1.497,5.202,4.977
		c-1.458,6.664-3.013,13.307-4.524,19.96C167.18,43.769,167.095,44.304,166.882,45.42z M136.913,107.995
		c-4.801,4.906-9.53,9.544-14.019,14.404c-2.319,2.51-3.651,5.606-3.47,9.19c0.272,5.383,5.262,8.628,9.934,6.36
		c3.538-1.717,6.047-4.489,7.364-8.173C139.282,122.616,138.68,115.386,136.913,107.995z M88.301,91.014
		c0.322,0.099,0.372,0.133,0.413,0.124c0.489-0.103,0.982-0.193,1.463-0.324c4.674-1.277,9.235-2.794,12.845-6.251
		c2.371-2.271,2.822-4.808,1.246-6.807c-1.632-2.069-4.514-2.238-7.197-0.42c-0.166,0.113-0.339,0.222-0.486,0.357
		C92.599,81.352,90.245,86.008,88.301,91.014z M130.221,75.724c1.9-3.705,3.239-7.484,3.75-11.47
		c0.294-2.292,0.284-4.684-0.028-6.972c-0.252-1.856-1.746-2.472-3.634-2.173c-2.705,0.429-3.864,2.332-4.424,4.684
		C124.445,65.833,127.045,70.802,130.221,75.724z"/>
</g>
</svg>
