<?xml version="1.0" encoding="UTF-8" standalone="no"?>
<!DOCTYPE svg PUBLIC "-//W3C//DTD SVG 1.1//EN" "http://www.w3.org/Graphics/SVG/1.1/DTD/svg11.dtd">
<svg width="100%" height="100%" viewBox="0 0 800 400" version="1.1" xmlns="http://www.w3.org/2000/svg" xmlns:xlink="http://www.w3.org/1999/xlink" xml:space="preserve" xmlns:serif="http://www.serif.com/" style="fill-rule:evenodd;clip-rule:evenodd;stroke-linejoin:round;stroke-miterlimit:1.41421;">
    <rect x="0" y="0" width="800" height="400" style="fill:white;"/>
    <g>
        <g transform="matrix(1,0,0,1,200,54.05)">
            <text x="0px" y="0px" style="font-family:'Arial-BoldMT', 'Arial', sans-serif;font-weight:700;font-size:13px;">Parsing speed</text>
        </g>
        <rect x="200" y="43" width="400" height="13" style="fill:white;fill-opacity:0;"/>
    </g>
    <g>
        <rect x="613" y="77" width="174" height="13" style="fill:white;fill-opacity:0;"/>
        <g>
            <rect x="613" y="77" width="174" height="13" style="fill:white;fill-opacity:0;"/>
            <g transform="matrix(1,0,0,1,644,88.05)">
                <text x="0px" y="0px" style="font-family:'ArialMT', 'Arial', sans-serif;font-size:13px;fill:rgb(34,34,34);">milliseconds</text>
            </g>
            <rect x="613" y="77" width="26" height="13" style="fill:rgb(51,102,204);"/>
        </g>
    </g>
    <g>
        <rect x="200" y="77" width="400" height="247" style="fill:white;fill-opacity:0;"/>
        <g>
            <g>
                <rect x="200" y="77" width="1" height="247" style="fill:rgb(204,204,204);"/>
                <rect x="300" y="77" width="1" height="247" style="fill:rgb(204,204,204);"/>
                <rect x="400" y="77" width="1" height="247" style="fill:rgb(204,204,204);"/>
                <rect x="499" y="77" width="1" height="247" style="fill:rgb(204,204,204);"/>
                <rect x="599" y="77" width="1" height="247" style="fill:rgb(204,204,204);"/>
            </g>
            <g>
                <rect x="201" y="89" width="43" height="38" style="fill:rgb(51,102,204);"/>
                <rect x="201" y="151" width="127" height="38" style="fill:rgb(51,102,204);"/>
                <rect x="201" y="212" width="326" height="38" style="fill:rgb(51,102,204);"/>
                <rect x="201" y="274" width="370" height="38" style="fill:rgb(51,102,204);"/>
            </g>
            <rect x="200" y="77" width="1" height="247" style="fill:rgb(51,51,51);"/>
        </g>
        <g>
            <g transform="matrix(1,0,0,1,200.5,343.05)">
                <text x="-3.615px" y="0px" style="font-family:'ArialMT', 'Arial', sans-serif;font-size:13px;fill:rgb(68,68,68);">0</text>
            </g>
            <g transform="matrix(1,0,0,1,300.25,343.05)">
                <text x="-7.23px" y="0px" style="font-family:'ArialMT', 'Arial', sans-serif;font-size:13px;fill:rgb(68,68,68);">25</text>
            </g>
            <g transform="matrix(1,0,0,1,400,343.05)">
                <text x="-7.23px" y="0px" style="font-family:'ArialMT', 'Arial', sans-serif;font-size:13px;fill:rgb(68,68,68);">50</text>
            </g>
            <g transform="matrix(1,0,0,1,499.75,343.05)">
                <text x="-7.23px" y="0px" style="font-family:'ArialMT', 'Arial', sans-serif;font-size:13px;fill:rgb(68,68,68);">75</text>
            </g>
            <g transform="matrix(1,0,0,1,599.5,343.05)">
                <text x="-10.845px" y="0px" style="font-family:'ArialMT', 'Arial', sans-serif;font-size:13px;fill:rgb(68,68,68);">100</text>
            </g>
            <g transform="matrix(1,0,0,1,187,112.8)">
                <text x="-44.808px" y="0px" style="font-family:'ArialMT', 'Arial', sans-serif;font-size:13px;fill:rgb(34,34,34);">ujson4c</text>
            </g>
            <g transform="matrix(1,0,0,1,187,174.3)">
                <text x="-24.572px" y="0px" style="font-family:'ArialMT', 'Arial', sans-serif;font-size:13px;fill:rgb(34,34,34);">pest</text>
            </g>
            <g transform="matrix(1,0,0,1,187,235.8)">
                <text x="-25.289px" y="0px" style="font-family:'ArialMT', 'Arial', sans-serif;font-size:13px;fill:rgb(34,34,34);">nom</text>
            </g>
            <g transform="matrix(1,0,0,1,187,297.3)">
                <text x="-106.92px" y="0px" style="font-family:'ArialMT', 'Arial', sans-serif;font-size:13px;fill:rgb(34,34,34);">pest (custom <tspan x="-29.612px -20.941px " y="0px 0px ">AS</tspan>T)</text>
            </g>
        </g>
    </g>
    <g>
        <g>
            <g transform="matrix(1,0,0,1,400,377.05)">
                <text x="-76.54px" y="0px" style="font-family:'Arial-ItalicMT', 'Arial', sans-serif;font-style:italic;font-size:13px;fill:rgb(34,34,34);">T<tspan x="-68.713px -65.825px " y="0px 0px ">im</tspan>e to parse canada.json</text>
            </g>
            <rect x="200" y="366" width="400" height="13" style="fill:white;fill-opacity:0;"/>
        </g>
        <g>
            <g transform="matrix(-3.82857e-16,-1,1,-3.82857e-16,44.05,200.5)">
                <text x="-37.565px" y="0px" style="font-family:'Arial-ItalicMT', 'Arial', sans-serif;font-style:italic;font-size:13px;fill:rgb(34,34,34);">JSON parser</text>
            </g>
            <rect x="33" y="77" width="13" height="247" style="fill:white;fill-opacity:0;fill-rule:nonzero;"/>
        </g>
    </g>
</svg>
